<svg xmlns="http://www.w3.org/2000/svg" width="1024" height="800" viewBox="0 0 1024 800"><defs><linearGradient id="sky" x1="0" y1="0" x2="0" y2="1"><stop offset="0" stop-color="#16204a"/><stop offset=".6" stop-color="#2f3a7c"/><stop offset="1" stop-color="#5a4f99"/></linearGradient><radialGradient id="moonglow"><stop offset="0" stop-color="#fff4c2" stop-opacity=".55"/><stop offset="1" stop-color="#fff4c2" stop-opacity="0"/></radialGradient><clipPath id="card"><path d="M0 800 V120 Q0 0 120 0 H904 Q1024 0 1024 120 V800 Z"/></clipPath></defs><g clip-path="url(#card)"><rect width="1024" height="800" fill="#3a3372"/><circle cx="30" cy="40" r="5" fill="#4a4388"/><circle cx="120" cy="40" r="5" fill="#4a4388"/><circle cx="210" cy="40" r="5" fill="#4a4388"/><circle cx="300" cy="40" r="5" fill="#4a4388"/><circle cx="390" cy="40" r="5" fill="#4a4388"/><circle cx="480" cy="40" r="5" fill="#4a4388"/><circle cx="570" cy="40" r="5" fill="#4a4388"/><circle cx="660" cy="40" r="5" fill="#4a4388"/><circle cx="750" cy="40" r="5" fill="#4a4388"/><circle cx="840" cy="40" r="5" fill="#4a4388"/><circle cx="930" cy="40" r="5" fill="#4a4388"/><circle cx="1020" cy="40" r="5" fill="#4a4388"/><circle cx="75" cy="130" r="5" fill="#4a4388"/><circle cx="165" cy="130" r="5" fill="#4a4388"/><circle cx="255" cy="130" r="5" fill="#4a4388"/><circle cx="345" cy="130" r="5" fill="#4a4388"/><circle cx="435" cy="130" r="5" fill="#4a4388"/><circle cx="525" cy="130" r="5" fill="#4a4388"/><circle cx="615" cy="130" r="5" fill="#4a4388"/><circle cx="705" cy="130" r="5" fill="#4a4388"/><circle cx="795" cy="130" r="5" fill="#4a4388"/><circle cx="885" cy="130" r="5" fill="#4a4388"/><circle cx="975" cy="130" r="5" fill="#4a4388"/><circle cx="30" cy="220" r="5" fill="#4a4388"/><circle cx="120" cy="220" r="5" fill="#4a4388"/><circle cx="210" cy="220" r="5" fill="#4a4388"/><circle cx="300" cy="220" r="5" fill="#4a4388"/><circle cx="390" cy="220" r="5" fill="#4a4388"/><circle cx="480" cy="220" r="5" fill="#4a4388"/><circle cx="570" cy="220" r="5" fill="#4a4388"/><circle cx="660" cy="220" r="5" fill="#4a4388"/><circle cx="750" cy="220" r="5" fill="#4a4388"/><circle cx="840" cy="220" r="5" fill="#4a4388"/><circle cx="930" cy="220" r="5" fill="#4a4388"/><circle cx="1020" cy="220" r="5" fill="#4a4388"/><circle cx="75" cy="310" r="5" fill="#4a4388"/><circle cx="165" cy="310" r="5" fill="#4a4388"/><circle cx="255" cy="310" r="5" fill="#4a4388"/><circle cx="345" cy="310" r="5" fill="#4a4388"/><circle cx="435" cy="310" r="5" fill="#4a4388"/><circle cx="525" cy="310" r="5" fill="#4a4388"/><circle cx="615" cy="310" r="5" fill="#4a4388"/><circle cx="705" cy="310" r="5" fill="#4a4388"/><circle cx="795" cy="310" r="5" fill="#4a4388"/><circle cx="885" cy="310" r="5" fill="#4a4388"/><circle cx="975" cy="310" r="5" fill="#4a4388"/><circle cx="30" cy="400" r="5" fill="#4a4388"/><circle cx="120" cy="400" r="5" fill="#4a4388"/><circle cx="210" cy="400" r="5" fill="#4a4388"/><circle cx="300" cy="400" r="5" fill="#4a4388"/><circle cx="390" cy="400" r="5" fill="#4a4388"/><circle cx="480" cy="400" r="5" fill="#4a4388"/><circle cx="570" cy="400" r="5" fill="#4a4388"/><circle cx="660" cy="400" r="5" fill="#4a4388"/><circle cx="750" cy="400" r="5" fill="#4a4388"/><circle cx="840" cy="400" r="5" fill="#4a4388"/><circle cx="930" cy="400" r="5" fill="#4a4388"/><circle cx="1020" cy="400" r="5" fill="#4a4388"/><circle cx="75" cy="490" r="5" fill="#4a4388"/><circle cx="165" cy="490" r="5" fill="#4a4388"/><circle cx="255" cy="490" r="5" fill="#4a4388"/><circle cx="345" cy="490" r="5" fill="#4a4388"/><circle cx="435" cy="490" r="5" fill="#4a4388"/><circle cx="525" cy="490" r="5" fill="#4a4388"/><circle cx="615" cy="490" r="5" fill="#4a4388"/><circle cx="705" cy="490" r="5" fill="#4a4388"/><circle cx="795" cy="490" r="5" fill="#4a4388"/><circle cx="885" cy="490" r="5" fill="#4a4388"/><circle cx="975" cy="490" r="5" fill="#4a4388"/><circle cx="30" cy="580" r="5" fill="#4a4388"/><circle cx="120" cy="580" r="5" fill="#4a4388"/><circle cx="210" cy="580" r="5" fill="#4a4388"/><circle cx="300" cy="580" r="5" fill="#4a4388"/><circle cx="390" cy="580" r="5" fill="#4a4388"/><circle cx="480" cy="580" r="5" fill="#4a4388"/><circle cx="570" cy="580" r="5" fill="#4a4388"/><circle cx="660" cy="580" r="5" fill="#4a4388"/><circle cx="750" cy="580" r="5" fill="#4a4388"/><circle cx="840" cy="580" r="5" fill="#4a4388"/><circle cx="930" cy="580" r="5" fill="#4a4388"/><circle cx="1020" cy="580" r="5" fill="#4a4388"/><circle cx="75" cy="670" r="5" fill="#4a4388"/><circle cx="165" cy="670" r="5" fill="#4a4388"/><circle cx="255" cy="670" r="5" fill="#4a4388"/><circle cx="345" cy="670" r="5" fill="#4a4388"/><circle cx="435" cy="670" r="5" fill="#4a4388"/><circle cx="525" cy="670" r="5" fill="#4a4388"/><circle cx="615" cy="670" r="5" fill="#4a4388"/><circle cx="705" cy="670" r="5" fill="#4a4388"/><circle cx="795" cy="670" r="5" fill="#4a4388"/><circle cx="885" cy="670" r="5" fill="#4a4388"/><circle cx="975" cy="670" r="5" fill="#4a4388"/><circle cx="30" cy="760" r="5" fill="#4a4388"/><circle cx="120" cy="760" r="5" fill="#4a4388"/><circle cx="210" cy="760" r="5" fill="#4a4388"/><circle cx="300" cy="760" r="5" fill="#4a4388"/><circle cx="390" cy="760" r="5" fill="#4a4388"/><circle cx="480" cy="760" r="5" fill="#4a4388"/><circle cx="570" cy="760" r="5" fill="#4a4388"/><circle cx="660" cy="760" r="5" fill="#4a4388"/><circle cx="750" cy="760" r="5" fill="#4a4388"/><circle cx="840" cy="760" r="5" fill="#4a4388"/><circle cx="930" cy="760" r="5" fill="#4a4388"/><circle cx="1020" cy="760" r="5" fill="#4a4388"/><path d="M292 560 V250 Q292 110 512 110 Q732 110 732 250 V560 Z" fill="#f2d6a2"/><path d="M312 545 V255 Q312 132 512 132 Q712 132 712 255 V545 Z" fill="url(#sky)"/><circle cx="450" cy="206" r="1.6" fill="#fff6d8" opacity="0.58"/><circle cx="528" cy="285" r="1.6" fill="#fff6d8" opacity="0.96"/><circle cx="409" cy="182" r="4.2" fill="#fff6d8" opacity="0.58"/><circle cx="364" cy="307" r="1.6" fill="#fff6d8" opacity="0.98"/><circle cx="563" cy="366" r="1.6" fill="#fff6d8" opacity="0.81"/><circle cx="477" cy="511" r="1.6" fill="#fff6d8" opacity="0.80"/><circle cx="379" cy="305" r="1.6" fill="#fff6d8" opacity="0.81"/><circle cx="537" cy="402" r="1.6" fill="#fff6d8" opacity="0.81"/><circle cx="566" cy="288" r="1.6" fill="#fff6d8" opacity="0.80"/><circle cx="559" cy="334" r="4.2" fill="#fff6d8" opacity="0.90"/><circle cx="502" cy="492" r="3" fill="#fff6d8" opacity="0.68"/><circle cx="624" cy="409" r="2.2" fill="#fff6d8" opacity="0.59"/><circle cx="441" cy="333" r="3" fill="#fff6d8" opacity="0.88"/><circle cx="437" cy="513" r="1.6" fill="#fff6d8" opacity="0.78"/><circle cx="391" cy="277" r="4.2" fill="#fff6d8" opacity="0.74"/><circle cx="686" cy="179" r="3" fill="#fff6d8" opacity="0.70"/><circle cx="460" cy="334" r="4.2" fill="#fff6d8" opacity="0.58"/><circle cx="365" cy="250" r="1.6" fill="#fff6d8" opacity="0.58"/><circle cx="590" cy="389" r="4.2" fill="#fff6d8" opacity="0.68"/><circle cx="473" cy="397" r="1.6" fill="#fff6d8" opacity="0.97"/><circle cx="462" cy="376" r="4.2" fill="#fff6d8" opacity="0.58"/><circle cx="614" cy="198" r="2.2" fill="#fff6d8" opacity="0.73"/><circle cx="669" cy="334" r="2.2" fill="#fff6d8" opacity="0.75"/><circle cx="533" cy="477" r="4.2" fill="#fff6d8" opacity="0.94"/><circle cx="433" cy="304" r="3" fill="#fff6d8" opacity="0.86"/><circle cx="471" cy="235" r="1.6" fill="#fff6d8" opacity="0.63"/><circle cx="416" cy="236" r="4.2" fill="#fff6d8" opacity="0.92"/><circle cx="397" cy="254" r="2.2" fill="#fff6d8" opacity="0.74"/><circle cx="610" cy="230" r="100.8" fill="url(#moonglow)"/><circle cx="610" cy="230" r="42" fill="#fff1b8"/><circle cx="628.9" cy="219.5" r="37.800000000000004" fill="#2a3574"/><rect x="505" y="130" width="14" height="420" fill="#f2d6a2"/><rect x="312" y="360" width="400" height="14" fill="#f2d6a2"/><path d="M230 90 Q300 330 250 600 L180 600 Q205 330 150 90 Z" fill="#e58aa0"/><path d="M794 90 Q724 330 774 600 L844 600 Q819 330 874 90 Z" fill="#e58aa0"/><rect x="120" y="70" width="784" height="26" rx="13" fill="#b77a52"/><rect x="262" y="556" width="500" height="30" rx="8" fill="#d9a877"/><rect y="660" width="1024" height="140" fill="#6b4a5e"/></g></svg>
