<svg xmlns="http://www.w3.org/2000/svg" width="1024" height="800" viewBox="0 0 1024 800"><defs><linearGradient id="sky" x1="0" y1="0" x2="0" y2="1"><stop offset="0" stop-color="#16204a"/><stop offset=".6" stop-color="#2f3a7c"/><stop offset="1" stop-color="#5a4f99"/></linearGradient><radialGradient id="moonglow"><stop offset="0" stop-color="#fff4c2" stop-opacity=".55"/><stop offset="1" stop-color="#fff4c2" stop-opacity="0"/></radialGradient><clipPath id="card"><path d="M0 800 V120 Q0 0 120 0 H904 Q1024 0 1024 120 V800 Z"/></clipPath></defs><g clip-path="url(#card)"><rect width="1024" height="800" fill="#172a3a"/><circle cx="274" cy="140" r="2.2" fill="#fff6d8" opacity="0.84"/><circle cx="673" cy="175" r="2.2" fill="#fff6d8" opacity="0.61"/><circle cx="541" cy="51" r="3" fill="#fff6d8" opacity="0.56"/><circle cx="144" cy="140" r="1.6" fill="#fff6d8" opacity="1.00"/><circle cx="838" cy="26" r="3" fill="#fff6d8" opacity="0.92"/><circle cx="750" cy="190" r="3" fill="#fff6d8" opacity="0.71"/><circle cx="249" cy="181" r="4.2" fill="#fff6d8" opacity="0.85"/><circle cx="891" cy="131" r="1.6" fill="#fff6d8" opacity="0.71"/><circle cx="603" cy="130" r="3" fill="#fff6d8" opacity="0.86"/><circle cx="563" cy="152" r="2.2" fill="#fff6d8" opacity="0.75"/><circle cx="734" cy="112" r="3" fill="#fff6d8" opacity="0.64"/><circle cx="532" cy="58" r="4.2" fill="#fff6d8" opacity="0.67"/><circle cx="295" cy="179" r="4.2" fill="#fff6d8" opacity="0.80"/><circle cx="574" cy="178" r="3" fill="#fff6d8" opacity="0.61"/><circle cx="442" cy="130" r="4.2" fill="#fff6d8" opacity="0.73"/><circle cx="725" cy="187" r="1.6" fill="#fff6d8" opacity="0.65"/><circle cx="508" cy="143" r="4.2" fill="#fff6d8" opacity="0.84"/><circle cx="177" cy="89" r="3" fill="#fff6d8" opacity="0.95"/><rect y="160" width="1024" height="640" fill="#1d3a45" opacity=".8"/><rect x="136" y="120" width="38" height="800" fill="#23475a"/><circle cx="155" cy="120" r="100" fill="#23475a"/><rect x="636" y="120" width="35" height="800" fill="#23475a"/><circle cx="653" cy="120" r="90" fill="#23475a"/><rect x="190" y="120" width="40" height="800" fill="#23475a"/><circle cx="210" cy="120" r="105" fill="#23475a"/><rect x="820" y="120" width="35" height="800" fill="#23475a"/><circle cx="837" cy="120" r="92" fill="#23475a"/><rect x="497" y="120" width="30" height="800" fill="#23475a"/><circle cx="513" cy="120" r="79" fill="#23475a"/><rect x="-37" y="120" width="33" height="800" fill="#23475a"/><circle cx="-20" cy="120" r="85" fill="#23475a"/><rect x="583" y="120" width="27" height="800" fill="#23475a"/><circle cx="596" cy="120" r="71" fill="#23475a"/><rect x="805" y="200" width="38" height="800" fill="#1b3947"/><circle cx="824" cy="200" r="99" fill="#1b3947"/><rect x="208" y="200" width="35" height="800" fill="#1b3947"/><circle cx="225" cy="200" r="90" fill="#1b3947"/><rect x="1021" y="200" width="47" height="800" fill="#1b3947"/><circle cx="1045" cy="200" r="123" fill="#1b3947"/><rect x="891" y="200" width="45" height="800" fill="#1b3947"/><circle cx="914" cy="200" r="117" fill="#1b3947"/><rect x="-4" y="200" width="40" height="800" fill="#1b3947"/><circle cx="16" cy="200" r="104" fill="#1b3947"/><rect x="489" y="200" width="36" height="800" fill="#1b3947"/><circle cx="507" cy="200" r="94" fill="#1b3947"/><rect x="973" y="200" width="41" height="800" fill="#1b3947"/><circle cx="993" cy="200" r="106" fill="#1b3947"/><rect x="125" y="260" width="57" height="800" fill="#142c38"/><circle cx="153" cy="260" r="147" fill="#142c38"/><rect x="93" y="260" width="59" height="800" fill="#142c38"/><circle cx="122" cy="260" r="153" fill="#142c38"/><rect x="442" y="260" width="52" height="800" fill="#142c38"/><circle cx="468" cy="260" r="135" fill="#142c38"/><rect x="325" y="260" width="51" height="800" fill="#142c38"/><circle cx="350" cy="260" r="132" fill="#142c38"/><rect x="159" y="260" width="43" height="800" fill="#142c38"/><circle cx="180" cy="260" r="111" fill="#142c38"/><rect x="881" y="260" width="46" height="800" fill="#142c38"/><circle cx="904" cy="260" r="120" fill="#142c38"/><rect x="790" y="260" width="46" height="800" fill="#142c38"/><circle cx="813" cy="260" r="119" fill="#142c38"/><circle cx="951" cy="604" r="10" fill="#e8f79a" opacity=".25"/><circle cx="951" cy="604" r="3.5" fill="#f4ffb8"/><circle cx="750" cy="559" r="10" fill="#e8f79a" opacity=".25"/><circle cx="750" cy="559" r="3.5" fill="#f4ffb8"/><circle cx="586" cy="548" r="10" fill="#e8f79a" opacity=".25"/><circle cx="586" cy="548" r="3.5" fill="#f4ffb8"/><circle cx="155" cy="462" r="10" fill="#e8f79a" opacity=".25"/><circle cx="155" cy="462" r="3.5" fill="#f4ffb8"/><circle cx="817" cy="368" r="10" fill="#e8f79a" opacity=".25"/><circle cx="817" cy="368" r="3.5" fill="#f4ffb8"/><circle cx="908" cy="602" r="10" fill="#e8f79a" opacity=".25"/><circle cx="908" cy="602" r="3.5" fill="#f4ffb8"/><circle cx="425" cy="424" r="10" fill="#e8f79a" opacity=".25"/><circle cx="425" cy="424" r="3.5" fill="#f4ffb8"/><circle cx="464" cy="431" r="10" fill="#e8f79a" opacity=".25"/><circle cx="464" cy="431" r="3.5" fill="#f4ffb8"/><circle cx="975" cy="431" r="10" fill="#e8f79a" opacity=".25"/><circle cx="975" cy="431" r="3.5" fill="#f4ffb8"/><circle cx="65" cy="332" r="10" fill="#e8f79a" opacity=".25"/><circle cx="65" cy="332" r="3.5" fill="#f4ffb8"/><circle cx="715" cy="638" r="10" fill="#e8f79a" opacity=".25"/><circle cx="715" cy="638" r="3.5" fill="#f4ffb8"/><circle cx="506" cy="467" r="10" fill="#e8f79a" opacity=".25"/><circle cx="506" cy="467" r="3.5" fill="#f4ffb8"/><path d="M380 800 Q470 620 512 560 Q560 620 660 800 Z" fill="#35505a"/><rect y="700" width="1024" height="100" fill="#10232c"/></g></svg>
