<svg xmlns="http://www.w3.org/2000/svg" width="1024" height="800" viewBox="0 0 1024 800"><defs><linearGradient id="sky" x1="0" y1="0" x2="0" y2="1"><stop offset="0" stop-color="#16204a"/><stop offset=".6" stop-color="#2f3a7c"/><stop offset="1" stop-color="#5a4f99"/></linearGradient><radialGradient id="moonglow"><stop offset="0" stop-color="#fff4c2" stop-opacity=".55"/><stop offset="1" stop-color="#fff4c2" stop-opacity="0"/></radialGradient><clipPath id="card"><path d="M0 800 V120 Q0 0 120 0 H904 Q1024 0 1024 120 V800 Z"/></clipPath></defs><g clip-path="url(#card)"><rect width="1024" height="800" fill="url(#sky)"/><circle cx="532" cy="310" r="3" fill="#fff6d8" opacity="0.68"/><circle cx="771" cy="274" r="3" fill="#fff6d8" opacity="0.60"/><circle cx="46" cy="158" r="4.2" fill="#fff6d8" opacity="0.66"/><circle cx="512" cy="134" r="4.2" fill="#fff6d8" opacity="0.61"/><circle cx="560" cy="70" r="2.2" fill="#fff6d8" opacity="0.62"/><circle cx="711" cy="221" r="2.2" fill="#fff6d8" opacity="0.70"/><circle cx="141" cy="278" r="1.6" fill="#fff6d8" opacity="0.69"/><circle cx="100" cy="358" r="4.2" fill="#fff6d8" opacity="0.84"/><circle cx="608" cy="266" r="4.2" fill="#fff6d8" opacity="0.92"/><circle cx="922" cy="26" r="3" fill="#fff6d8" opacity="0.81"/><circle cx="899" cy="286" r="1.6" fill="#fff6d8" opacity="0.98"/><circle cx="387" cy="299" r="4.2" fill="#fff6d8" opacity="0.66"/><circle cx="566" cy="365" r="3" fill="#fff6d8" opacity="0.58"/><circle cx="83" cy="119" r="2.2" fill="#fff6d8" opacity="0.66"/><circle cx="321" cy="145" r="2.2" fill="#fff6d8" opacity="0.70"/><circle cx="911" cy="228" r="3" fill="#fff6d8" opacity="0.70"/><circle cx="70" cy="377" r="1.6" fill="#fff6d8" opacity="0.76"/><circle cx="287" cy="248" r="2.2" fill="#fff6d8" opacity="0.69"/><circle cx="94" cy="375" r="4.2" fill="#fff6d8" opacity="0.56"/><circle cx="573" cy="267" r="4.2" fill="#fff6d8" opacity="0.77"/><circle cx="952" cy="372" r="4.2" fill="#fff6d8" opacity="0.63"/><circle cx="995" cy="366" r="1.6" fill="#fff6d8" opacity="0.96"/><circle cx="69" cy="370" r="3" fill="#fff6d8" opacity="0.91"/><circle cx="922" cy="312" r="1.6" fill="#fff6d8" opacity="0.62"/><circle cx="431" cy="269" r="3" fill="#fff6d8" opacity="0.93"/><circle cx="664" cy="165" r="1.6" fill="#fff6d8" opacity="0.79"/><circle cx="552" cy="373" r="2.2" fill="#fff6d8" opacity="0.79"/><circle cx="280" cy="79" r="3" fill="#fff6d8" opacity="0.57"/><circle cx="890" cy="231" r="4.2" fill="#fff6d8" opacity="0.65"/><circle cx="420" cy="246" r="1.6" fill="#fff6d8" opacity="0.99"/><circle cx="757" cy="102" r="3" fill="#fff6d8" opacity="0.92"/><circle cx="970" cy="235" r="4.2" fill="#fff6d8" opacity="0.57"/><circle cx="836" cy="367" r="2.2" fill="#fff6d8" opacity="0.97"/><circle cx="565" cy="241" r="3" fill="#fff6d8" opacity="0.63"/><circle cx="973" cy="96" r="4.2" fill="#fff6d8" opacity="0.71"/><circle cx="600" cy="207" r="1.6" fill="#fff6d8" opacity="0.64"/><circle cx="260" cy="170" r="110.39999999999999" fill="url(#moonglow)"/><circle cx="260" cy="170" r="46" fill="#fff1b8"/><circle cx="280.7" cy="158.5" r="41.4" fill="#2a3574"/><path d="M0 430 Q300 380 520 420 T1024 410 V800 H0 Z" fill="#2c5a58"/><ellipse cx="512" cy="620" rx="560" ry="200" fill="#284f86"/><ellipse cx="512" cy="620" rx="500" ry="165" fill="#3464a0"/><rect x="220" y="520" width="90" height="7" rx="3.5" fill="#fff1b8" opacity=".5"/><rect x="233" y="554" width="82" height="7" rx="3.5" fill="#fff1b8" opacity=".5"/><rect x="246" y="588" width="74" height="7" rx="3.5" fill="#fff1b8" opacity=".5"/><rect x="259" y="622" width="66" height="7" rx="3.5" fill="#fff1b8" opacity=".5"/><rect x="272" y="656" width="58" height="7" rx="3.5" fill="#fff1b8" opacity=".5"/><rect x="285" y="690" width="50" height="7" rx="3.5" fill="#fff1b8" opacity=".5"/><rect x="298" y="724" width="42" height="7" rx="3.5" fill="#fff1b8" opacity=".5"/><rect x="311" y="758" width="34" height="7" rx="3.5" fill="#fff1b8" opacity=".5"/><path d="M10 800 Q16 709 28 617" stroke="#4f8a4a" stroke-width="9" fill="none" stroke-linecap="round"/><ellipse cx="14" cy="658" rx="9" ry="26" fill="#8a5a3a"/><path d="M36 800 Q42 714 44 627" stroke="#4f8a4a" stroke-width="9" fill="none" stroke-linecap="round"/><ellipse cx="40" cy="665" rx="9" ry="26" fill="#8a5a3a"/><path d="M62 800 Q68 716 52 631" stroke="#4f8a4a" stroke-width="9" fill="none" stroke-linecap="round"/><ellipse cx="66" cy="669" rx="9" ry="26" fill="#8a5a3a"/><path d="M88 800 Q94 670 76 540" stroke="#4f8a4a" stroke-width="9" fill="none" stroke-linecap="round"/><ellipse cx="92" cy="597" rx="9" ry="26" fill="#8a5a3a"/><path d="M114 800 Q120 688 112 576" stroke="#4f8a4a" stroke-width="9" fill="none" stroke-linecap="round"/><ellipse cx="118" cy="625" rx="9" ry="26" fill="#8a5a3a"/><path d="M140 800 Q146 697 140 595" stroke="#4f8a4a" stroke-width="9" fill="none" stroke-linecap="round"/><ellipse cx="144" cy="640" rx="9" ry="26" fill="#8a5a3a"/><path d="M166 800 Q172 710 179 621" stroke="#4f8a4a" stroke-width="9" fill="none" stroke-linecap="round"/><ellipse cx="170" cy="660" rx="9" ry="26" fill="#8a5a3a"/><path d="M860 800 Q866 716 849 631" stroke="#4f8a4a" stroke-width="9" fill="none" stroke-linecap="round"/><ellipse cx="864" cy="668" rx="9" ry="26" fill="#8a5a3a"/><path d="M886 800 Q892 719 877 638" stroke="#4f8a4a" stroke-width="9" fill="none" stroke-linecap="round"/><ellipse cx="890" cy="674" rx="9" ry="26" fill="#8a5a3a"/><path d="M912 800 Q918 700 928 599" stroke="#4f8a4a" stroke-width="9" fill="none" stroke-linecap="round"/><ellipse cx="916" cy="643" rx="9" ry="26" fill="#8a5a3a"/><path d="M938 800 Q944 701 923 602" stroke="#4f8a4a" stroke-width="9" fill="none" stroke-linecap="round"/><ellipse cx="942" cy="646" rx="9" ry="26" fill="#8a5a3a"/><path d="M964 800 Q970 707 984 614" stroke="#4f8a4a" stroke-width="9" fill="none" stroke-linecap="round"/><ellipse cx="968" cy="655" rx="9" ry="26" fill="#8a5a3a"/><path d="M990 800 Q996 717 995 634" stroke="#4f8a4a" stroke-width="9" fill="none" stroke-linecap="round"/><ellipse cx="994" cy="670" rx="9" ry="26" fill="#8a5a3a"/><path d="M1016 800 Q1022 701 1022 602" stroke="#4f8a4a" stroke-width="9" fill="none" stroke-linecap="round"/><ellipse cx="1020" cy="646" rx="9" ry="26" fill="#8a5a3a"/></g></svg>
